<?xml version="1.0" encoding="UTF-8"?>
<!-- Generated by Pixelmator Pro 3.1.1 -->
<svg width="1080" height="593" viewBox="0 0 1080 593" xmlns="http://www.w3.org/2000/svg" xmlns:xlink="http://www.w3.org/1999/xlink">
    <path id="Path" fill="#ffffff" stroke="none" d="M 770 66 C 754.429016 66.129028 738.468018 69.992981 723 71.844971 C 693.424988 75.38501 663.697998 78.86499 634 80.911011 C 531.880981 87.942993 429.47699 92 327 92 C 280.76001 92 234.171005 91.938995 188 93.959991 C 173.358994 94.60199 157.438995 91.796997 143 94.32901 C 134.005997 95.906006 122.913002 101.877991 115.014999 106.414001 C 110.227997 109.162994 107.755997 114.182007 105.471001 119 C 100.466003 129.557007 96.643997 141.412994 95.000999 153 C 91.353996 178.71698 92.708 205.23999 95.169998 231 C 96.885002 248.950012 99.547997 267.946991 97.830002 286 C 96.669998 298.196991 95.625 310.208008 91.974998 322 C 89.443001 330.177002 84.022003 338.368988 84.008003 347 C 84.001999 350.384003 84.675003 353.640991 84.911003 357 C 86.130997 374.420013 89.536003 401.971008 112 403 C 115.115997 378.868988 121.473 355.347992 123.830002 331 C 128.289001 284.950989 128 238.283997 128 192 C 128 178.261993 128.291 164.681 128.960999 151 C 129.229004 145.536011 130.229996 137.350006 135.389999 134.026978 C 139.783005 131.197998 147.972 132.001007 153 132 C 153 166.015015 150.847 200.024994 150.014999 234 C 148.113007 311.628998 147 389.320007 147 467 C 147 497.406006 148.837006 527.713989 150.910004 558 C 151.384003 564.916016 151.815994 572.083984 151.985001 579 C 152.059998 582.060974 151.130997 586.702026 153.028 589.351013 C 155.884003 593.340027 162.718994 592.992981 167 593 C 178.378006 593.018005 189.684006 592.093994 201 592 C 201 564.906006 199.772995 538.075989 200.960999 511 C 201.556 497.428986 202.039993 481.890991 206.811005 469 C 209.548996 461.601013 214.753998 454.743011 218.800003 448 C 223.022995 440.963013 227.307007 433.944 231.681 427 C 233.604004 423.947998 235.360001 420.036011 238.328995 417.854004 C 242.561996 414.742004 249.110992 414.65799 254 413 C 258.220001 427.653992 266.334991 441.791992 272 456 C 283.036011 483.678009 293.084991 511.734985 305.140015 539 C 309.953003 549.888 315.25 560.656982 321.149994 571 C 323.566986 575.234985 325.89801 581.190002 330.184998 583.859985 C 333.257996 585.773987 337.522003 586.291992 341 587.116028 C 354.118988 590.224976 366.77301 588.27301 380 588 C 373.868011 558.369995 357.915009 531.473022 350.898987 502 C 349.04599 494.213989 350.308014 485.931 349.960999 478 C 348.915009 454.127014 351.128998 431.240997 360.718994 409 C 364.904999 399.292999 370.141998 390.049011 375.601013 381 C 377.824005 377.31601 380.158997 372.167999 384.092987 370.028015 C 387.212006 368.332001 391.580994 369 395 369 C 403.752991 369 412.29599 369.537994 421 369.960999 C 458.351013 371.777008 495.904999 379.312012 533 384 C 533 410.035004 529.643982 436.109009 527.169983 462 C 525.202026 482.595001 525.135986 503.473999 522.713989 524 C 521.203003 536.80603 520.604004 550.112 520.039001 563 C 519.861023 567.067993 518.767029 574.125977 521.603027 577.442017 C 524.671021 581.028015 530.656982 581.52002 535 582.130005 C 547.145996 583.838013 559.882996 581.531006 572 580 C 572 543.447998 571.825012 505.447998 582 470 C 586.96698 452.696014 594.588989 435.14801 611 426 C 620.242004 463.514008 623.622986 502.911987 629.919983 541 C 631.520996 550.687988 633.01001 560.377991 635.002991 570 C 635.776001 573.732971 636.198975 579.403015 639.429993 581.911011 C 643.788025 585.294983 650.815002 584.997986 656 585 C 667.703979 585.005005 679.356018 584.031982 691 584 C 685.479004 554.367004 682.729004 523.958984 679.830017 494 C 678.828003 483.641998 678.619995 473.359985 677.911011 463 C 677.408997 455.675995 676.380981 448.377014 677.174011 441 C 678.002014 433.291992 681.226013 425.32901 683.666992 418 C 688.288025 404.121002 693.375977 390.445007 699.150024 377 C 716.221985 337.25 737.849976 298.341003 765.585999 265 C 779.164001 248.679016 794.09198 232.963989 812 221.345001 C 823.18103 214.091003 839.132996 217 852 217 L 946 217 C 949.833008 217 954.286987 217.595001 958 216.485992 C 962.932007 215.013 967.146973 210.475006 971 207.246002 C 982.536011 197.580994 994.336975 184.669006 995.828979 169 C 997.72699 149.069 978.840027 134.643005 965 123.790009 C 934.244995 99.674011 897.052979 78.650024 878 43 C 891.971985 39.689026 906.492981 32.64801 919 25.690979 C 923.325012 23.286011 930.403992 20.213013 932.976013 15.815002 C 935.481995 11.528992 934.997009 4.794983 935 0 C 909.497986 0 883.370972 -1.583984 858 0.830017 C 851.392029 1.460022 843.317993 -0.585999 837 1.588989 C 824.35498 5.940979 817.981995 23.359009 805 26.687012 C 801.133972 27.677002 797.804016 24.366028 795 22.207031 C 790.166016 18.487 785.237 14.872009 779 14.174011 C 776.44397 13.888 771.856995 13.294006 770.028015 15.604004 C 767.700012 18.541016 768.999023 25.469971 769 29 C 769.005005 41.309998 770 53.630981 770 66 Z"/>
</svg>
